<mxfile host="app.diagrams.net" modified="2023-02-25T21:49:29.514Z" agent="5.0 (Windows NT 10.0; Win64; x64) AppleWebKit/537.36 (KHTML, like Gecko) Chrome/110.0.0.0 Safari/537.36" etag="2mtiCrp0Yd1MSmrgxYST" version="20.8.23" type="github">
  <diagram name="PÃ¡gina-1" id="rKSsnr4Ns5YOtNC94uGT">
    <mxGraphModel dx="934" dy="425" grid="1" gridSize="10" guides="1" tooltips="1" connect="1" arrows="1" fold="1" page="1" pageScale="1" pageWidth="827" pageHeight="1169" math="0" shadow="0">
      <root>
        <mxCell id="0" />
        <mxCell id="1" parent="0" />
        <mxCell id="ddoyZSRqwRdsarZSSn1j-1" value="PRODUCTOS" style="rounded=1;whiteSpace=wrap;html=1;" vertex="1" parent="1">
          <mxGeometry x="170" y="210" width="90" height="30" as="geometry" />
        </mxCell>
        <mxCell id="ddoyZSRqwRdsarZSSn1j-3" value="CODIGO" style="ellipse;whiteSpace=wrap;html=1;align=center;fontStyle=4;" vertex="1" parent="1">
          <mxGeometry x="80" y="60" width="90" height="40" as="geometry" />
        </mxCell>
        <mxCell id="ddoyZSRqwRdsarZSSn1j-6" value="DESCRIPCION" style="ellipse;whiteSpace=wrap;html=1;align=center;" vertex="1" parent="1">
          <mxGeometry x="165" y="40" width="100" height="30" as="geometry" />
        </mxCell>
        <mxCell id="ddoyZSRqwRdsarZSSn1j-7" value="PRECIO" style="ellipse;whiteSpace=wrap;html=1;align=center;" vertex="1" parent="1">
          <mxGeometry x="250" y="70" width="100" height="30" as="geometry" />
        </mxCell>
        <mxCell id="ddoyZSRqwRdsarZSSn1j-9" value="NUM_EXISTENCIA" style="ellipse;whiteSpace=wrap;html=1;align=center;dashed=1;" vertex="1" parent="1">
          <mxGeometry x="30" y="115" width="110" height="40" as="geometry" />
        </mxCell>
        <mxCell id="ddoyZSRqwRdsarZSSn1j-12" value="" style="endArrow=none;html=1;rounded=0;exitX=0.5;exitY=0;exitDx=0;exitDy=0;entryX=0.5;entryY=1;entryDx=0;entryDy=0;" edge="1" parent="1" source="ddoyZSRqwRdsarZSSn1j-1" target="ddoyZSRqwRdsarZSSn1j-6">
          <mxGeometry relative="1" as="geometry">
            <mxPoint x="290" y="110" as="sourcePoint" />
            <mxPoint x="450" y="110" as="targetPoint" />
          </mxGeometry>
        </mxCell>
        <mxCell id="ddoyZSRqwRdsarZSSn1j-16" value="" style="endArrow=none;html=1;rounded=0;entryX=0;entryY=0.5;entryDx=0;entryDy=0;exitX=0.974;exitY=0.698;exitDx=0;exitDy=0;exitPerimeter=0;" edge="1" parent="1" source="ddoyZSRqwRdsarZSSn1j-9" target="ddoyZSRqwRdsarZSSn1j-1">
          <mxGeometry relative="1" as="geometry">
            <mxPoint x="40" y="160" as="sourcePoint" />
            <mxPoint x="200" y="160" as="targetPoint" />
          </mxGeometry>
        </mxCell>
        <mxCell id="ddoyZSRqwRdsarZSSn1j-18" value="" style="endArrow=none;html=1;rounded=0;entryX=0.5;entryY=1;entryDx=0;entryDy=0;exitX=0.75;exitY=0;exitDx=0;exitDy=0;" edge="1" parent="1" source="ddoyZSRqwRdsarZSSn1j-1" target="ddoyZSRqwRdsarZSSn1j-7">
          <mxGeometry relative="1" as="geometry">
            <mxPoint x="280" y="130" as="sourcePoint" />
            <mxPoint x="440" y="130" as="targetPoint" />
          </mxGeometry>
        </mxCell>
        <mxCell id="ddoyZSRqwRdsarZSSn1j-19" value="CLIENTES" style="rounded=1;whiteSpace=wrap;html=1;" vertex="1" parent="1">
          <mxGeometry x="500" y="210" width="80" height="30" as="geometry" />
        </mxCell>
        <mxCell id="ddoyZSRqwRdsarZSSn1j-22" value="DIRECCION" style="ellipse;whiteSpace=wrap;html=1;align=center;" vertex="1" parent="1">
          <mxGeometry x="550" y="70" width="100" height="30" as="geometry" />
        </mxCell>
        <mxCell id="ddoyZSRqwRdsarZSSn1j-23" value="NOMBRES" style="ellipse;whiteSpace=wrap;html=1;align=center;" vertex="1" parent="1">
          <mxGeometry x="460" y="60" width="90" height="30" as="geometry" />
        </mxCell>
        <mxCell id="ddoyZSRqwRdsarZSSn1j-24" value="CEDULA" style="ellipse;whiteSpace=wrap;html=1;align=center;fontStyle=4;" vertex="1" parent="1">
          <mxGeometry x="380" y="85" width="90" height="30" as="geometry" />
        </mxCell>
        <mxCell id="ddoyZSRqwRdsarZSSn1j-25" value="APELLDOS" style="ellipse;whiteSpace=wrap;html=1;align=center;" vertex="1" parent="1">
          <mxGeometry x="680" y="170" width="100" height="40" as="geometry" />
        </mxCell>
        <mxCell id="ddoyZSRqwRdsarZSSn1j-27" value="" style="endArrow=none;html=1;rounded=0;entryX=0;entryY=0.25;entryDx=0;entryDy=0;exitX=0.55;exitY=0.987;exitDx=0;exitDy=0;exitPerimeter=0;" edge="1" parent="1" source="ddoyZSRqwRdsarZSSn1j-24" target="ddoyZSRqwRdsarZSSn1j-19">
          <mxGeometry relative="1" as="geometry">
            <mxPoint x="410" y="110" as="sourcePoint" />
            <mxPoint x="570" y="110" as="targetPoint" />
          </mxGeometry>
        </mxCell>
        <mxCell id="ddoyZSRqwRdsarZSSn1j-28" value="" style="endArrow=none;html=1;rounded=0;entryX=0.5;entryY=1;entryDx=0;entryDy=0;exitX=0.25;exitY=0;exitDx=0;exitDy=0;" edge="1" parent="1" source="ddoyZSRqwRdsarZSSn1j-19" target="ddoyZSRqwRdsarZSSn1j-23">
          <mxGeometry relative="1" as="geometry">
            <mxPoint x="428" y="119" as="sourcePoint" />
            <mxPoint x="460" y="145" as="targetPoint" />
          </mxGeometry>
        </mxCell>
        <mxCell id="ddoyZSRqwRdsarZSSn1j-29" value="" style="endArrow=none;html=1;rounded=0;entryX=0;entryY=0.5;entryDx=0;entryDy=0;exitX=1;exitY=0.5;exitDx=0;exitDy=0;" edge="1" parent="1" source="ddoyZSRqwRdsarZSSn1j-19" target="ddoyZSRqwRdsarZSSn1j-25">
          <mxGeometry relative="1" as="geometry">
            <mxPoint x="570" y="164" as="sourcePoint" />
            <mxPoint x="602" y="190" as="targetPoint" />
          </mxGeometry>
        </mxCell>
        <mxCell id="ddoyZSRqwRdsarZSSn1j-30" value="" style="endArrow=none;html=1;rounded=0;entryX=0.655;entryY=-0.014;entryDx=0;entryDy=0;exitX=0.299;exitY=0.935;exitDx=0;exitDy=0;exitPerimeter=0;entryPerimeter=0;" edge="1" parent="1" source="ddoyZSRqwRdsarZSSn1j-22" target="ddoyZSRqwRdsarZSSn1j-19">
          <mxGeometry relative="1" as="geometry">
            <mxPoint x="600" y="70" as="sourcePoint" />
            <mxPoint x="632" y="96" as="targetPoint" />
          </mxGeometry>
        </mxCell>
        <mxCell id="ddoyZSRqwRdsarZSSn1j-32" value="" style="endArrow=none;html=1;rounded=0;entryX=0.063;entryY=0.703;entryDx=0;entryDy=0;exitX=1;exitY=0.25;exitDx=0;exitDy=0;entryPerimeter=0;" edge="1" parent="1" source="ddoyZSRqwRdsarZSSn1j-19" target="ddoyZSRqwRdsarZSSn1j-47">
          <mxGeometry relative="1" as="geometry">
            <mxPoint x="570" y="130" as="sourcePoint" />
            <mxPoint x="684.9999999999998" y="130" as="targetPoint" />
          </mxGeometry>
        </mxCell>
        <mxCell id="ddoyZSRqwRdsarZSSn1j-33" value="COMPRAR" style="shape=rhombus;perimeter=rhombusPerimeter;whiteSpace=wrap;html=1;align=center;" vertex="1" parent="1">
          <mxGeometry x="334" y="195" width="80" height="60" as="geometry" />
        </mxCell>
        <mxCell id="ddoyZSRqwRdsarZSSn1j-34" value="" style="endArrow=none;html=1;rounded=0;exitX=0.743;exitY=0.957;exitDx=0;exitDy=0;exitPerimeter=0;" edge="1" parent="1" source="ddoyZSRqwRdsarZSSn1j-3" target="ddoyZSRqwRdsarZSSn1j-1">
          <mxGeometry relative="1" as="geometry">
            <mxPoint x="135" y="80" as="sourcePoint" />
            <mxPoint x="295" y="80" as="targetPoint" />
          </mxGeometry>
        </mxCell>
        <mxCell id="ddoyZSRqwRdsarZSSn1j-41" value="" style="endArrow=none;html=1;rounded=0;exitX=0;exitY=0.5;exitDx=0;exitDy=0;entryX=1;entryY=0.5;entryDx=0;entryDy=0;" edge="1" parent="1" source="ddoyZSRqwRdsarZSSn1j-19" target="ddoyZSRqwRdsarZSSn1j-33">
          <mxGeometry relative="1" as="geometry">
            <mxPoint x="350" y="220" as="sourcePoint" />
            <mxPoint x="510" y="220" as="targetPoint" />
          </mxGeometry>
        </mxCell>
        <mxCell id="ddoyZSRqwRdsarZSSn1j-42" value="N" style="resizable=0;html=1;align=right;verticalAlign=bottom;" connectable="0" vertex="1" parent="ddoyZSRqwRdsarZSSn1j-41">
          <mxGeometry x="1" relative="1" as="geometry" />
        </mxCell>
        <mxCell id="ddoyZSRqwRdsarZSSn1j-43" value="" style="endArrow=none;html=1;rounded=0;entryX=0;entryY=0.5;entryDx=0;entryDy=0;exitX=1;exitY=0.5;exitDx=0;exitDy=0;" edge="1" parent="1" source="ddoyZSRqwRdsarZSSn1j-1" target="ddoyZSRqwRdsarZSSn1j-33">
          <mxGeometry relative="1" as="geometry">
            <mxPoint x="270" y="180" as="sourcePoint" />
            <mxPoint x="400" y="184.66" as="targetPoint" />
          </mxGeometry>
        </mxCell>
        <mxCell id="ddoyZSRqwRdsarZSSn1j-44" value="N" style="resizable=0;html=1;align=right;verticalAlign=bottom;" connectable="0" vertex="1" parent="ddoyZSRqwRdsarZSSn1j-43">
          <mxGeometry x="1" relative="1" as="geometry" />
        </mxCell>
        <mxCell id="ddoyZSRqwRdsarZSSn1j-46" value="FECHA" style="ellipse;whiteSpace=wrap;html=1;align=center;" vertex="1" parent="1">
          <mxGeometry x="330" y="140" width="80" height="30" as="geometry" />
        </mxCell>
        <mxCell id="ddoyZSRqwRdsarZSSn1j-47" value="TELEFONO" style="ellipse;shape=doubleEllipse;margin=3;whiteSpace=wrap;html=1;align=center;" vertex="1" parent="1">
          <mxGeometry x="670" y="100" width="100" height="40" as="geometry" />
        </mxCell>
      </root>
    </mxGraphModel>
  </diagram>
</mxfile>
